HIERARCHY
ROOT Hips
{
	OFFSET -21.947001 39.810204 44.525997
	CHANNELS 6 Xposition Yposition Zposition Zrotation Xrotation Yrotation
	JOINT Chest
	{
		OFFSET -0.201599 0.334099 6.453201
		CHANNELS 6 Xposition Yposition Zposition Zrotation Xrotation Yrotation
		JOINT Chest2
		{
			OFFSET 0.000000 0.000000 3.568001
			CHANNELS 6 Xposition Yposition Zposition Zrotation Xrotation Yrotation
			JOINT Neck
			{
				OFFSET 0.000000 0.000000 8.296402
				CHANNELS 6 Xposition Yposition Zposition Zrotation Xrotation Yrotation
				JOINT Head
				{
					OFFSET 0.000000 0.000000 2.173901
					CHANNELS 6 Xposition Yposition Zposition Zrotation Xrotation Yrotation
					End Site
					{
						OFFSET 0.000000 0.000000 7.891998
					}
				}
			}
			JOINT LeftCollar
			{
				OFFSET 1.927601 0.221401 6.049000
				CHANNELS 6 Xposition Yposition Zposition Zrotation Xrotation Yrotation
				JOINT LeftShoulder
				{
					OFFSET 4.959700 0.000000 0.000000
					CHANNELS 6 Xposition Yposition Zposition Zrotation Xrotation Yrotation
					JOINT LeftElbow
					{
						OFFSET 0.000000 0.000000 -8.654202
						CHANNELS 6 Xposition Yposition Zposition Zrotation Xrotation Yrotation
						JOINT LeftWrist
						{
							OFFSET 0.000000 0.000000 -13.864101
							CHANNELS 6 Xposition Yposition Zposition Zrotation Xrotation Yrotation
							End Site
							{
								OFFSET 0.000000 0.000000 -2.173901
							}
						}
					}
				}
			}
			JOINT RightCollar
			{
				OFFSET -3.155701 -0.764999 6.687801
				CHANNELS 6 Xposition Yposition Zposition Zrotation Xrotation Yrotation
				JOINT RightShoulder
				{
					OFFSET -3.592899 0.000000 0.000000
					CHANNELS 6 Xposition Yposition Zposition Zrotation Xrotation Yrotation
					JOINT RightElbow
					{
						OFFSET 0.000000 0.000000 -10.352398
						CHANNELS 6 Xposition Yposition Zposition Zrotation Xrotation Yrotation
						JOINT RightWrist
						{
							OFFSET 0.000000 0.000000 -12.750301
							CHANNELS 6 Xposition Yposition Zposition Zrotation Xrotation Yrotation
							End Site
							{
								OFFSET 0.000000 0.000000 -2.173901
							}
						}
					}
				}
			}
		}
	}
	JOINT LeftHip
	{
		OFFSET 2.460600 -0.518101 -2.735500
		CHANNELS 6 Xposition Yposition Zposition Zrotation Xrotation Yrotation
		JOINT LeftKnee
		{
			OFFSET 0.000000 -0.000004 -17.005899
			CHANNELS 6 Xposition Yposition Zposition Zrotation Xrotation Yrotation
			JOINT LeftAnkle
			{
				OFFSET 0.000000 0.000000 -19.194401
				CHANNELS 6 Xposition Yposition Zposition Zrotation Xrotation Yrotation
				End Site
				{
					OFFSET 0.000000 -8.134600 0.000000
				}
			}
		}
	}
	JOINT RightHip
	{
		OFFSET -3.115499 -0.679600 -2.320301
		CHANNELS 6 Xposition Yposition Zposition Zrotation Xrotation Yrotation
		JOINT RightKnee
		{
			OFFSET 0.000000 -0.000004 -17.680401
			CHANNELS 6 Xposition Yposition Zposition Zrotation Xrotation Yrotation
			JOINT RightAnkle
			{
				OFFSET 0.000000 0.000000 -16.993797
				CHANNELS 6 Xposition Yposition Zposition Zrotation Xrotation Yrotation
				End Site
				{
					OFFSET 0.000000 -8.842300 0.000000
				}
			}
		}
	}
}
MOTION
Frames: 5
Frame Time: 0.041667
-18.107300 37.566006 19.505999 2501.236256 8.814875 -6.667810 -0.201600 0.334097 6.453205 19.522226 -4.422168 9.474885 0.000001 0.000004 3.567998 -5.006286 -1.691778 -0.450492 -0.000004 -0.000003 8.296394 246.900301 -182.014228 166.174404 0.000001 0.000002 2.173897 0.290673 -0.359253 11.530374 1.927599 0.221401 6.048995 -9.901332 -6.195689 10.660595 4.959702 -0.000001 0.000004 200.250068 187.954416 88.352718 -0.000004 -0.000005 -8.654198 75.471070 -9.700127 3.764855 0.000002 -0.000004 -13.864100 4207.122447 -152.562111 189.058584 -3.155705 -0.765006 6.687800 46.408762 14.677694 17.388603 -3.592896 -0.000002 0.000005 -204.406334 202.515423 321.299830 -0.000004 -0.000003 -10.352391 -178.985053 -132.686561 -146.488870 0.000004 -0.000003 -12.750301 22.489352 186.013672 -208.241116 2.460601 -0.518103 -2.735499 240.365203 49.786690 49.897438 -0.000001 0.000004 -17.005896 -592.924296 164.483318 -181.562329 -0.000005 -0.000001 -19.194397 690.477156 144.736886 273.647677 -3.115496 -0.679599 -2.320300 -139.441235 -11.874847 -110.579649 -0.000009 -0.000013 -17.680393 -764.959385 223.878957 -330.464414 -0.000001 -0.000004 -16.993795 1001.776851 38.739894 -419.518524
-18.112801 37.545807 19.515099 2501.268604 8.853887 -6.732553 -0.201605 0.334093 6.453199 19.514228 -4.407200 9.471243 0.000002 -0.000001 3.567999 -4.851089 -1.731588 -0.372940 -0.000006 -0.000001 8.296395 246.685696 -181.939738 166.232447 0.000000 0.000005 2.173898 0.478470 -0.278091 11.348988 1.927596 0.221406 6.048995 -9.860394 -6.144833 10.590177 4.959701 0.000004 0.000003 199.993225 187.796953 88.308656 -0.000002 -0.000005 -8.654201 75.397707 -9.522031 3.679478 -0.000006 0.000004 -13.864098 4206.733836 -152.466051 188.316921 -3.155706 -0.765001 6.687801 46.346566 14.561173 17.288612 -3.592891 -0.000001 0.000005 -204.246302 202.589449 321.416818 -0.000001 -0.000004 -10.352386 -179.200026 -132.686069 -146.805777 -0.000002 0.000001 -12.750303 22.454462 186.274394 -208.185791 2.460599 -0.518108 -2.735497 240.461782 49.811224 49.687782 -0.000006 0.000001 -17.005899 -592.518036 164.669154 -181.628910 -0.000004 -0.000002 -19.194401 690.009807 144.835992 273.607051 -3.115497 -0.679605 -2.320302 -139.452942 -11.794028 -110.622481 -0.000008 -0.000005 -17.680397 -765.180246 223.988404 -330.558725 0.000005 -0.000001 -16.993795 1001.484847 38.979142 -419.722119
-18.122398 37.523903 19.526892 2501.312973 8.857916 -6.785147 -0.201599 0.334104 6.453195 19.516583 -4.357388 9.314388 0.000000 0.000002 3.567996 -4.728344 -1.785269 -0.165092 -0.000005 -0.000003 8.296402 246.499232 -181.885124 166.251449 -0.000002 -0.000001 2.173895 0.629017 -0.243584 11.189434 1.927598 0.221404 6.048997 -9.837861 -6.083705 10.490366 4.959702 -0.000004 0.000006 199.776203 187.606295 88.282401 0.000002 0.000002 -8.654199 75.282543 -9.355309 3.619555 0.000001 0.000000 -13.864100 4206.070707 -152.326237 187.146063 -3.155707 -0.764999 6.687798 46.352164 14.518720 17.196529 -3.592897 0.000001 0.000007 -204.185596 202.670141 321.476541 -0.000004 0.000003 -10.352391 -179.434698 -132.754139 -147.121250 0.000002 -0.000000 -12.750296 22.356992 186.473549 -208.121615 2.460604 -0.518097 -2.735499 240.604478 49.870599 49.461696 -0.000002 -0.000002 -17.005901 -592.104400 164.822464 -181.683087 -0.000004 -0.000010 -19.194399 689.405636 144.866673 273.588418 -3.115493 -0.679603 -2.320304 -139.458475 -11.721922 -110.621170 -0.000009 -0.000015 -17.680405 -765.397774 224.100119 -330.665714 0.000002 -0.000000 -16.993792 1001.177871 39.227310 -419.869678
-18.136301 37.500008 19.540995 2501.344009 8.820394 -6.827385 -0.201601 0.334098 6.453205 19.480258 -4.269839 9.339116 0.000002 0.000001 3.568000 -4.594722 -1.778105 -0.532631 -0.000002 -0.000006 8.296401 246.282770 -182.182715 166.482787 -0.000003 0.000001 2.173897 0.812687 -0.228531 11.024819 1.927599 0.221395 6.048996 -9.756630 -6.133305 10.697280 4.959700 0.000000 -0.000002 199.594465 187.412645 88.303397 0.000000 -0.000002 -8.654201 75.152503 -9.265211 3.643500 -0.000007 0.000003 -13.864100 4205.004105 -152.105594 185.562115 -3.155704 -0.765005 6.687809 46.247870 14.626469 17.495514 -3.592902 0.000003 0.000002 -204.010101 202.654882 321.482442 0.000003 0.000003 -10.352395 -179.653988 -132.915222 -147.442529 -0.000003 0.000004 -12.750307 22.231081 186.567136 -208.106479 2.460601 -0.518095 -2.735497 240.834847 49.972478 49.203911 -0.000001 -0.000001 -17.005901 -591.834635 164.937908 -181.701733 -0.000005 0.000003 -19.194399 688.776439 144.813630 273.601505 -3.115491 -0.679601 -2.320294 -139.424870 -11.666374 -110.571931 -0.000010 -0.000003 -17.680401 -765.585030 224.199812 -330.784750 -0.000003 -0.000002 -16.993792 1000.850459 39.457409 -419.994834
-18.154200 37.476006 19.556602 2501.376794 8.745442 -6.844058 -0.201598 0.334100 6.453204 19.459827 -4.142814 9.211361 -0.000000 -0.000004 3.567996 -4.477655 -1.825967 -0.515706 0.000002 0.000006 8.296400 246.145374 -182.257656 166.517553 0.000003 0.000000 2.173909 0.926309 -0.254788 10.905656 1.927600 0.221408 6.049000 -9.705987 -6.126009 10.675984 4.959701 0.000007 0.000007 199.410733 187.319263 88.275318 -0.000001 -0.000002 -8.654200 74.852945 -9.195410 3.667494 0.000001 0.000000 -13.864099 4203.658175 -151.902710 183.553684 -3.155704 -0.765002 6.687806 46.170761 14.506893 17.604206 -3.592895 0.000012 0.000006 -203.800346 202.517199 321.458181 -0.000004 0.000004 -10.352388 -179.936894 -133.150904 -147.763124 0.000002 0.000003 -12.750296 22.123382 186.591930 -208.154332 2.460600 -0.518102 -2.735502 241.071117 50.095602 48.965035 0.000000 -0.000002 -17.005899 -591.515474 165.039650 -181.702334 -0.000005 -0.000004 -19.194405 688.025336 144.752950 273.658851 -3.115493 -0.679599 -2.320297 -139.369395 -11.638851 -110.470168 -0.000007 -0.000006 -17.680397 -765.743819 224.244700 -330.889334 0.000007 -0.000003 -16.993799 1000.480208 39.702913 -419.948826
